<svg width="60" height="60" viewBox="0 0 60 60" fill="none" xmlns="http://www.w3.org/2000/svg">
<circle cx="30" cy="30" r="30" fill="#D9D9D9"/>
<path d="M30 12L29.1289 12.0391L28.2656 12.1523L27.4102 12.3398L26.5781 12.6055L25.7734 12.9375L25 13.3398L24.2656 13.8125L23.5742 14.3438L22.9258 14.9297L22.3398 15.5742L21.8086 16.2656L21.3398 17L20.9375 17.7773L20.6055 18.582L20.3398 19.4141L20.1523 20.2656L20.0391 21.1328L20 22.0039L20.0352 23.3633L20.1484 24.7188L20.332 26.0703L20.5898 27.4062L20.918 28.7227L21.3203 30.0273L21.7969 31.3047L22.332 32.5508L22.9414 33.7695L23.3047 34.3867L23.7266 34.9688L23.8594 35.1914L23.9297 35.4414L23.9375 35.6953L23.875 35.9492L23.75 36.1758L23.5742 36.3633L23.3555 36.5L23.1055 36.5742L21.3906 36.8984L19.6875 37.293L18.0039 37.7578L16.3398 38.293L14.7031 38.8906L14.0703 39.1836L13.4766 39.543L12.9297 39.9727L12.4336 40.4609L11.9961 41L11.6289 41.5898L11.3281 42.2188L10.9297 43.3047L10.5938 44.418L10.3359 45.5508L10.1484 46.6914L10.0391 47.8477L10 49.0078L10.0391 49.2891L10.1602 49.5508L10.3438 49.7656L10.5859 49.918L10.8555 50H11.1445L11.4141 49.918L11.6562 49.7656L11.8398 49.5508L11.9609 49.2891L12 49.0078L12.0352 47.9766L12.1328 46.9531L12.2969 45.9297L12.5273 44.9297L12.8242 43.9375L13.1797 42.9727L13.418 42.4844L13.7188 42.0352L14.0781 41.6328L14.4883 41.2812L14.9414 40.9844L15.4297 40.7578L16.9922 40.1797L18.5742 39.6719L20.1758 39.2305L21.8008 38.8555L23.4336 38.5469L23.8945 38.4336L24.3398 38.2461L24.7422 37.9922L25.1016 37.6719L25.4023 37.3047L25.6445 36.8867L25.8203 36.4414L25.9141 35.9727L25.9414 35.4961L25.8867 35.0195L25.7578 34.5586L25.5586 34.125L25.2969 33.7305L24.9805 33.2891L24.707 32.832L24.1484 31.7109L23.6523 30.5586L23.2188 29.3867L22.8477 28.1875L22.5469 26.9727L22.3086 25.7422L22.1367 24.5039L22.0312 23.2578L22 22.0039L22.0391 21.2188L22.1562 20.4414L22.3438 19.6797L22.6094 18.9414L22.9453 18.2305L23.3477 17.5586L23.8164 16.9258L24.3398 16.3438L24.9258 15.8164L25.5547 15.3477L26.2305 14.9492L26.9414 14.6094L27.6797 14.3477L28.4375 14.1562L29.2148 14.0391L30 14L30.7852 14.0391L31.5625 14.1562L32.3203 14.3477L33.0586 14.6094L33.7734 14.9492L34.4453 15.3477L35.0742 15.8164L35.6602 16.3438L36.1836 16.9258L36.6523 17.5586L37.0547 18.2305L37.3906 18.9414L37.6562 19.6797L37.8477 20.4414L37.9648 21.2188L38 22.0039L37.9688 23.2578L37.8633 24.5039L37.6914 25.7422L37.457 26.9727L37.1523 28.1875L36.7812 29.3867L36.3477 30.5586L35.8516 31.7109L35.293 32.832L35.0195 33.2891L34.7031 33.7305L34.4414 34.125L34.2422 34.5586L34.1133 35.0195L34.0586 35.4961L34.0859 35.9727L34.1836 36.4414L34.3555 36.8867L34.5977 37.3047L34.9023 37.6719L35.2578 37.9922L35.6602 38.2461L36.1055 38.4336L36.5664 38.5469L38.1992 38.8555L39.8242 39.2305L41.4258 39.6719L43.0117 40.1797L44.5703 40.7578L45.0586 40.9844L45.5117 41.2812L45.9219 41.6328L46.2812 42.0352L46.582 42.4844L46.8203 42.9727L47.1758 43.9375L47.4727 44.9297L47.7031 45.9297L47.8672 46.9531L47.9648 47.9766L48 49.0078L48.0391 49.2891L48.1602 49.5508L48.3438 49.7656L48.5859 49.918L48.8555 50H49.1445L49.418 49.918L49.6562 49.7656L49.8398 49.5508L49.9609 49.2891L50 49.0078L49.9609 47.8477L49.8516 46.6914L49.6641 45.5469L49.4062 44.418L49.0703 43.3047L48.6719 42.2188L48.3711 41.5898L48.0039 41L47.5664 40.4609L47.0703 39.9727L46.5273 39.543L45.9336 39.1836L45.2969 38.8906L43.6602 38.293L41.9961 37.7578L40.3125 37.293L38.6133 36.8984L36.8945 36.5742L36.6445 36.5L36.4258 36.3633L36.25 36.1758L36.125 35.9492L36.0664 35.6953L36.0703 35.4414L36.1406 35.1914L36.2734 34.9688L36.6953 34.3867L37.0586 33.7695L37.668 32.5508L38.207 31.3047L38.6797 30.0273L39.082 28.7227L39.4102 27.4062L39.668 26.0703L39.8516 24.7188L39.9648 23.3633L40 22.0039L39.9648 21.1328L39.8477 20.2656L39.6602 19.4141L39.3945 18.582L39.0625 17.7773L38.6602 17L38.1953 16.2656L37.6602 15.5742L37.0742 14.9297L36.4258 14.3438L35.7383 13.8125L35 13.3398L34.2266 12.9375L33.4219 12.6055L32.5898 12.3398L31.7344 12.1523L30.8711 12.0391L30 12Z" fill="white"/>
</svg>
