<svg width="103" height="30" viewBox="0 0 103 30" fill="none" xmlns="http://www.w3.org/2000/svg">
<path d="M14.68 29.28C12.0933 29.28 9.70667 28.68 7.52 27.48C5.36 26.2533 3.64 24.56 2.36 22.4C1.10667 20.2133 0.48 17.76 0.48 15.04C0.48 12.32 1.10667 9.88 2.36 7.72C3.64 5.56 5.36 3.88 7.52 2.68C9.70667 1.45333 12.0933 0.839998 14.68 0.839998C17.2933 0.839998 19.68 1.45333 21.84 2.68C24.0267 3.88 25.7467 5.56 27 7.72C28.2533 9.88 28.88 12.32 28.88 15.04C28.88 17.76 28.2533 20.2133 27 22.4C25.7467 24.56 24.0267 26.2533 21.84 27.48C19.68 28.68 17.2933 29.28 14.68 29.28ZM14.68 25.32C16.52 25.32 18.16 24.9067 19.6 24.08C21.04 23.2267 22.16 22.0267 22.96 20.48C23.7867 18.9067 24.2 17.0933 24.2 15.04C24.2 12.9867 23.7867 11.1867 22.96 9.64C22.16 8.09333 21.04 6.90667 19.6 6.08C18.16 5.25333 16.52 4.84 14.68 4.84C12.84 4.84 11.2 5.25333 9.76 6.08C8.32 6.90667 7.18667 8.09333 6.36 9.64C5.56 11.1867 5.16 12.9867 5.16 15.04C5.16 17.0933 5.56 18.9067 6.36 20.48C7.18667 22.0267 8.32 23.2267 9.76 24.08C11.2 24.9067 12.84 25.32 14.68 25.32ZM62.6472 1.2V29H58.0872V9.96L49.6072 29H46.4472L37.9272 9.96V29H33.3672V1.2H38.2872L48.0472 23L57.7672 1.2H62.6472ZM73.2006 1.2V29H68.6406V1.2H73.2006ZM102.028 29H97.4675L83.7475 8.24V29H79.1875V1.16H83.7475L97.4675 21.88V1.16H102.028V29Z" fill="#5B56EF"/>
</svg>
