<svg width="17" height="17" viewBox="0 0 17 17" fill="none" xmlns="http://www.w3.org/2000/svg">
<path d="M12.4998 8.50003C12.4966 8.14929 12.3553 7.81396 12.1065 7.56669L9.2465 4.70003C9.1216 4.57586 8.95263 4.50616 8.7765 4.50616C8.60038 4.50616 8.43141 4.57586 8.3065 4.70003C8.24402 4.762 8.19442 4.83574 8.16058 4.91698C8.12673 4.99821 8.10931 5.08535 8.10931 5.17336C8.10931 5.26137 8.12673 5.3485 8.16058 5.42974C8.19442 5.51098 8.24402 5.58472 8.3065 5.64669L10.4998 7.83336H3.83317C3.65636 7.83336 3.48679 7.9036 3.36177 8.02862C3.23674 8.15365 3.1665 8.32322 3.1665 8.50003C3.1665 8.67684 3.23674 8.84641 3.36177 8.97143C3.48679 9.09646 3.65636 9.16669 3.83317 9.16669H10.4998L8.3065 11.36C8.18097 11.4847 8.11009 11.6541 8.10947 11.831C8.10884 12.0079 8.17852 12.1778 8.30317 12.3034C8.42782 12.4289 8.59724 12.4998 8.77415 12.5004C8.95106 12.501 9.12097 12.4313 9.2465 12.3067L12.1065 9.44003C12.3569 9.19113 12.4983 8.85308 12.4998 8.50003Z" fill="white"/>
</svg>
