<svg width="17" height="17" viewBox="0 0 17 17" fill="none" xmlns="http://www.w3.org/2000/svg">
<path d="M4.50016 8.49997C4.50341 8.14923 4.64473 7.8139 4.8935 7.56663L7.7535 4.69997C7.8784 4.5758 8.04737 4.5061 8.2235 4.5061C8.39962 4.5061 8.56859 4.5758 8.6935 4.69997C8.75598 4.76194 8.80558 4.83567 8.83942 4.91691C8.87327 4.99815 8.89069 5.08529 8.89069 5.1733C8.89069 5.26131 8.87327 5.34844 8.83942 5.42968C8.80558 5.51092 8.75598 5.58466 8.6935 5.64663L6.50016 7.8333H13.1668C13.3436 7.8333 13.5132 7.90354 13.6382 8.02856C13.7633 8.15359 13.8335 8.32315 13.8335 8.49997C13.8335 8.67678 13.7633 8.84635 13.6382 8.97137C13.5132 9.09639 13.3436 9.16663 13.1668 9.16663H6.50016L8.6935 11.36C8.81903 11.4846 8.88991 11.654 8.89053 11.8309C8.89116 12.0079 8.82148 12.1778 8.69683 12.3033C8.57218 12.4288 8.40276 12.4997 8.22585 12.5003C8.04894 12.501 7.87903 12.4313 7.7535 12.3066L4.8935 9.43997C4.6431 9.19107 4.50165 8.85302 4.50016 8.49997Z" fill="#5B56EF"/>
</svg>
