<svg width="16" height="17" viewBox="0 0 16 17" fill="none" xmlns="http://www.w3.org/2000/svg">
<g clip-path="url(#clip0_12_34)">
<path d="M7.99997 0.5C5.87894 0.502294 3.84544 1.34589 2.34564 2.84568C0.84585 4.34547 0.00225896 6.37897 -3.50902e-05 8.5C-0.0840351 14.882 7.4393 18.786 12.6 15.0447C12.6741 14.9953 12.7377 14.9316 12.7868 14.8574C12.8359 14.7831 12.8697 14.6997 12.886 14.6121C12.9024 14.5246 12.9011 14.4346 12.8821 14.3476C12.8631 14.2606 12.8269 14.1782 12.7756 14.1054C12.7243 14.0326 12.6589 13.9709 12.5833 13.9238C12.5077 13.8767 12.4234 13.8452 12.3355 13.8312C12.2475 13.8172 12.1576 13.821 12.0712 13.8423C11.9847 13.8636 11.9033 13.9021 11.832 13.9553C7.5333 17.0707 1.26663 13.8187 1.3333 8.5C1.6993 -0.344 14.302 -0.342 14.6666 8.5V9.83333C14.6666 10.187 14.5262 10.5261 14.2761 10.7761C14.0261 11.0262 13.6869 11.1667 13.3333 11.1667C12.9797 11.1667 12.6405 11.0262 12.3905 10.7761C12.1404 10.5261 12 10.187 12 9.83333V8.5C11.832 3.214 4.1673 3.21467 3.99997 8.5C4.00772 9.31066 4.26093 10.1 4.72622 10.7638C5.19151 11.4277 5.84703 11.935 6.6064 12.2189C7.36577 12.5028 8.19334 12.55 8.98003 12.3542C9.76673 12.1583 10.4756 11.7287 11.0133 11.122C11.3025 11.6324 11.7519 12.0332 12.292 12.2623C12.8321 12.4914 13.4326 12.536 14.0006 12.3893C14.5686 12.2425 15.0724 11.9125 15.4338 11.4504C15.7953 10.9883 15.9943 10.42 16 9.83333V8.5C15.9977 6.37897 15.1541 4.34547 13.6543 2.84568C12.1545 1.34589 10.121 0.502294 7.99997 0.5ZM7.99997 11.1667C7.29272 11.1667 6.61444 10.8857 6.11435 10.3856C5.61425 9.88552 5.3333 9.20724 5.3333 8.5C5.3333 7.79276 5.61425 7.11448 6.11435 6.61438C6.61444 6.11428 7.29272 5.83333 7.99997 5.83333C8.70721 5.83333 9.38549 6.11428 9.88558 6.61438C10.3857 7.11448 10.6666 7.79276 10.6666 8.5C10.6666 9.20724 10.3857 9.88552 9.88558 10.3856C9.38549 10.8857 8.70721 11.1667 7.99997 11.1667Z" fill="#454545"/>
</g>
<defs>
<clipPath id="clip0_12_34">
<rect width="16" height="16" fill="white" transform="translate(0 0.5)"/>
</clipPath>
</defs>
</svg>
