<svg width="16" height="17" viewBox="0 0 16 17" fill="none" xmlns="http://www.w3.org/2000/svg">
<g clip-path="url(#clip0_15_109)">
<path d="M9.89933 8.998L6.26733 6.15467C5.718 5.72467 4.94933 5.724 4.4 6.15467L0.767333 8.99733C0.28 9.37933 0 9.954 0 10.5727V16.5H10.6667V10.5727C10.6667 9.95333 10.3867 9.37933 9.89933 8.998ZM9.33333 15.1667H1.33333V10.5727C1.33333 10.366 1.42667 10.1747 1.58933 10.0473L5.22133 7.20533C5.28667 7.15333 5.37867 7.154 5.44533 7.20533L9.07733 10.0487C9.24 10.1753 9.33333 10.3673 9.33333 10.5733V15.1667ZM4 10.5H6.66667V13.1667H4V10.5ZM12 9.16667H13.3333V10.5H12V9.16667ZM12 11.8333H13.3333V13.1667H12V11.8333ZM9.33333 3.83333H10.6667V5.16667H9.33333V3.83333ZM13.3333 5.16667H12V3.83333H13.3333V5.16667ZM9.33333 6.5H10.6667V7.83333H9.33333V6.5ZM12 6.5H13.3333V7.83333H12V6.5ZM16 2.5V16.5H12V15.1667H14.6667V2.5C14.6667 2.132 14.368 1.83333 14 1.83333H8.66667C8.29867 1.83333 8 2.132 8 2.5V5.81867L6.66667 4.77533V2.5C6.66667 2.48867 6.66667 2.47667 6.66733 2.46533C6.686 1.37867 7.57533 0.5 8.66667 0.5H14C15.1027 0.5 16 1.39733 16 2.5Z" fill="#454545"/>
</g>
<defs>
<clipPath id="clip0_15_109">
<rect width="16" height="16" fill="white" transform="translate(0 0.5)"/>
</clipPath>
</defs>
</svg>
