<svg width="16" height="17" viewBox="0 0 16 17" fill="none" xmlns="http://www.w3.org/2000/svg">
<g clip-path="url(#clip0_15_95)">
<path d="M7.9718 16.5053L7.50709 16.107C6.86643 15.5705 1.27246 10.7394 1.27246 7.20551C1.27246 3.50557 4.27187 0.506165 7.9718 0.506165C11.6717 0.506165 14.6711 3.50557 14.6711 7.20551C14.6711 10.7394 9.07718 15.5706 8.43918 16.1096L7.9718 16.5053ZM7.9718 1.95476C5.07327 1.95804 2.72437 4.30695 2.72109 7.20548C2.72109 9.42554 6.16271 12.972 7.9718 14.5953C9.78093 12.9714 13.2225 9.42285 13.2225 7.20548C13.2192 4.30695 10.8704 1.95807 7.9718 1.95476Z" fill="#454545"/>
<path d="M7.97197 9.86105C6.50534 9.86105 5.31641 8.67211 5.31641 7.20549C5.31641 5.73886 6.50534 4.54993 7.97197 4.54993C9.43859 4.54993 10.6275 5.73886 10.6275 7.20549C10.6275 8.67211 9.43862 9.86105 7.97197 9.86105ZM7.97197 5.87768C7.23866 5.87768 6.64419 6.47215 6.64419 7.20546C6.64419 7.93877 7.23866 8.53324 7.97197 8.53324C8.70528 8.53324 9.29975 7.93877 9.29975 7.20546C9.29975 6.47215 8.70531 5.87768 7.97197 5.87768Z" fill="#454545"/>
</g>
<defs>
<clipPath id="clip0_15_95">
<rect width="16" height="16" fill="white" transform="translate(0 0.5)"/>
</clipPath>
</defs>
</svg>
