<svg width="16" height="17" viewBox="0 0 16 17" fill="none" xmlns="http://www.w3.org/2000/svg">
<g clip-path="url(#clip0_18_226)">
<path d="M14.9727 6.56533L14 5.63333V3.16667C14 1.696 12.804 0.5 11.3333 0.5H4.66667C3.196 0.5 2 1.696 2 3.16667V5.63333L1.02733 6.56467C0.374667 7.19 0 8.06733 0 8.97133V13.1667C0 15.0047 1.49533 16.5 3.33333 16.5H12.6667C14.5047 16.5 16 15.0047 16 13.1667V8.97133C16 8.06733 15.6253 7.19 14.9727 6.56533ZM4.66667 1.83333H11.3333C12.0687 1.83333 12.6667 2.43133 12.6667 3.16667V8.66133L9.414 11.914C8.65867 12.6693 7.34133 12.6693 6.586 11.914L3.33333 8.66133V3.16667C3.33333 2.43133 3.93133 1.83333 4.66667 1.83333ZM14.6667 13.1667C14.6667 14.2693 13.7693 15.1667 12.6667 15.1667H3.33333C2.23067 15.1667 1.33333 14.2693 1.33333 13.1667V8.97133C1.33333 8.84133 1.348 8.71267 1.37267 8.58667L5.64333 12.8573C6.272 13.4867 7.10933 13.834 8 13.834C8.89067 13.834 9.728 13.4867 10.3567 12.8573L14.6273 8.58667C14.652 8.71267 14.6667 8.842 14.6667 8.97133V13.1667ZM4.87933 6.85733C4.61 6.60667 4.594 6.18467 4.84467 5.91533C5.096 5.64533 5.51867 5.63133 5.78667 5.88067L7.02067 7.028C7.2 7.20667 7.46467 7.20733 7.628 7.044L10.2033 4.56133C10.4687 4.30533 10.8907 4.314 11.146 4.578C11.402 4.84267 11.394 5.26533 11.1293 5.52067L8.562 7.99533C8.226 8.33133 7.78133 8.49933 7.336 8.49933C6.88733 8.49933 6.43733 8.32867 6.09533 7.98733L4.87933 6.85667V6.85733Z" fill="#454545"/>
</g>
<defs>
<clipPath id="clip0_18_226">
<rect width="16" height="16" fill="white" transform="translate(0 0.5)"/>
</clipPath>
</defs>
</svg>
