<svg width="16" height="17" viewBox="0 0 16 17" fill="none" xmlns="http://www.w3.org/2000/svg">
<g clip-path="url(#clip0_15_103)">
<path d="M1.21987 1.71331L1.91987 1.10665C2.72654 0.299981 4.03321 0.299981 4.83987 1.10665C4.85987 1.12665 6.09321 2.73331 6.09321 2.73331C6.85321 3.53331 6.85321 4.79331 6.09321 5.58665L5.31987 6.55998C6.29321 8.76665 7.80654 10.2866 9.93987 11.1933L10.9132 10.4133C11.7065 9.64665 12.9732 9.64665 13.7665 10.4133C13.7665 10.4133 15.3732 11.6466 15.3932 11.6666C16.1999 12.4733 16.1999 13.78 15.4265 14.5533L14.7599 15.32C13.9932 16.0866 12.9599 16.5066 11.8399 16.5066C6.74654 16.5066 -0.000125885 9.75332 -0.000125885 4.66665C-0.000125885 3.55331 0.419873 2.51331 1.21987 1.71998V1.71331ZM11.8399 15.1666C12.5999 15.1666 13.2999 14.8866 13.7799 14.4L14.4465 13.6333C14.7199 13.36 14.7332 12.9133 14.4732 12.6266C14.4732 12.6266 12.8799 11.4 12.8599 11.38C12.5865 11.1066 12.1065 11.1066 11.8265 11.38C11.8065 11.4 10.4665 12.4733 10.4665 12.4733C10.2799 12.62 10.0332 12.66 9.81321 12.5733C7.05321 11.52 5.07321 9.54665 3.93321 6.69998C3.84654 6.47998 3.87987 6.22665 4.03321 6.03332C4.03321 6.03332 5.10654 4.68665 5.11987 4.67332C5.40654 4.38665 5.40654 3.92665 5.11987 3.63998C5.09987 3.61998 3.87321 2.02665 3.87321 2.02665C3.58654 1.76665 3.13987 1.77331 2.83321 2.07998L2.13321 2.68665C1.61987 3.19998 1.33321 3.89998 1.33321 4.65998C1.33321 9.29998 7.84654 15.1666 11.8399 15.1666Z" fill="#454545"/>
</g>
<defs>
<clipPath id="clip0_15_103">
<rect width="16" height="16" fill="white" transform="matrix(-1 0 0 1 16 0.5)"/>
</clipPath>
</defs>
</svg>
