<svg width="16" height="16" viewBox="0 0 16 16" fill="none" xmlns="http://www.w3.org/2000/svg">
<g clip-path="url(#clip0_24_505)">
<path d="M15.9999 15.0573L11.8252 10.8827C12.9096 9.5564 13.4428 7.86407 13.3144 6.15571C13.1861 4.44736 12.406 2.85369 11.1356 1.70435C9.86516 0.555014 8.20158 -0.0620646 6.48895 -0.0192434C4.77632 0.0235778 3.14566 0.723023 1.93426 1.93442C0.72287 3.14581 0.0234252 4.77647 -0.019396 6.4891C-0.0622172 8.20174 0.554862 9.86531 1.7042 11.1357C2.85354 12.4061 4.44721 13.1862 6.15556 13.3146C7.86392 13.4429 9.55625 12.9098 10.8825 11.8253L15.0572 16L15.9999 15.0573ZM6.66652 12C5.61169 12 4.58054 11.6872 3.70348 11.1012C2.82642 10.5151 2.14283 9.68219 1.73916 8.70765C1.3355 7.73311 1.22988 6.66076 1.43567 5.62619C1.64145 4.59163 2.14941 3.64132 2.89529 2.89544C3.64117 2.14956 4.59147 1.64161 5.62604 1.43582C6.6606 1.23003 7.73296 1.33565 8.7075 1.73932C9.68204 2.14298 10.515 2.82657 11.101 3.70363C11.6871 4.58069 11.9999 5.61184 11.9999 6.66667C11.9983 8.08067 11.4359 9.43631 10.436 10.4362C9.43615 11.436 8.08052 11.9984 6.66652 12Z" fill="#454545"/>
</g>
<defs>
<clipPath id="clip0_24_505">
<rect width="16" height="16" fill="white"/>
</clipPath>
</defs>
</svg>
