<svg width="16" height="17" viewBox="0 0 16 17" fill="none" xmlns="http://www.w3.org/2000/svg">
<g clip-path="url(#clip0_8_221)">
<path d="M13.374 9.126C13.7647 9.51667 13.7647 10.15 13.374 10.54C12.9833 10.9307 12.35 10.9307 11.96 10.54C11.5693 10.1493 11.5693 9.516 11.96 9.126C12.3507 8.736 12.984 8.73533 13.374 9.126ZM14.926 12.7587C14.1467 13.5387 13.0633 13.9147 11.984 13.8153L9.89533 15.904C9.52267 16.2767 9.008 16.49 8.48133 16.49H7.33867C6.608 16.49 6.01067 15.8947 6.00733 15.1633L6.00133 13.838C6 13.5707 6.10333 13.3187 6.29267 13.1287C6.482 12.9387 6.73333 12.834 7.00133 12.834H7.328L7.33067 12.4927C7.33467 11.946 7.78333 11.5007 8.33067 11.5007H8.83867V11.2387C8.36533 9.698 8.92933 8.06267 10.264 7.13867C11.4673 6.30467 13.0933 6.28133 14.3113 7.07667C15.2573 7.69467 15.8653 8.68267 15.98 9.78733C16.0953 10.8913 15.7107 11.9753 14.926 12.76V12.7587ZM14.654 9.92333C14.5807 9.21 14.1993 8.59467 13.5827 8.192C12.8133 7.68933 11.7853 7.70667 11.0233 8.23333C10.152 8.83733 9.79533 9.916 10.1367 10.918C10.1607 10.9873 10.1727 11.06 10.1727 11.1327V12.166C10.1727 12.5347 9.87467 12.8327 9.506 12.8327H8.66267L8.658 13.5047C8.65533 13.8707 8.35733 14.166 7.99133 14.166H7.338L7.342 15.156H8.48267C8.658 15.156 8.82933 15.0853 8.954 14.9607L11.2787 12.636C11.436 12.4793 11.662 12.408 11.8793 12.454C12.6467 12.606 13.4333 12.3673 13.984 11.816C14.4833 11.3167 14.7267 10.6267 14.654 9.92333ZM1.33333 4.5C1.33333 2.294 3.12733 0.5 5.33333 0.5C7.53933 0.5 9.33333 2.294 9.33333 4.5C9.33333 6.706 7.53933 8.5 5.33333 8.5C3.12733 8.5 1.33333 6.706 1.33333 4.5ZM2.66667 4.5C2.66667 5.97067 3.86267 7.16667 5.33333 7.16667C6.804 7.16667 8 5.97067 8 4.5C8 3.02933 6.804 1.83333 5.33333 1.83333C3.86267 1.83333 2.66667 3.02933 2.66667 4.5ZM6.66 10.642C6.71267 10.278 6.45933 9.94 6.09467 9.88733C5.844 9.85133 5.58733 9.83333 5.33333 9.83333C2.39267 9.83333 0 12.226 0 15.1667V15.8333C0 16.202 0.298667 16.5 0.666667 16.5C1.03467 16.5 1.33333 16.202 1.33333 15.8333V15.1667C1.33333 12.9607 3.12733 11.1667 5.33333 11.1667C5.52467 11.1667 5.71667 11.1807 5.90533 11.208C6.268 11.2567 6.608 11.0067 6.66 10.642Z" fill="#454545"/>
</g>
<defs>
<clipPath id="clip0_8_221">
<rect width="16" height="16" fill="white" transform="translate(0 0.5)"/>
</clipPath>
</defs>
</svg>
