<svg width="25" height="24" viewBox="0 0 25 24" fill="none" xmlns="http://www.w3.org/2000/svg">
<path d="M12.0498 20C11.4998 20 11.029 19.8042 10.6373 19.4125C10.2456 19.0208 10.0498 18.55 10.0498 18C10.0498 17.45 10.2456 16.9792 10.6373 16.5875C11.029 16.1958 11.4998 16 12.0498 16C12.5998 16 13.0706 16.1958 13.4623 16.5875C13.854 16.9792 14.0498 17.45 14.0498 18C14.0498 18.55 13.854 19.0208 13.4623 19.4125C13.0706 19.8042 12.5998 20 12.0498 20ZM12.0498 14C11.4998 14 11.029 13.8042 10.6373 13.4125C10.2456 13.0208 10.0498 12.55 10.0498 12C10.0498 11.45 10.2456 10.9792 10.6373 10.5875C11.029 10.1958 11.4998 10 12.0498 10C12.5998 10 13.0706 10.1958 13.4623 10.5875C13.854 10.9792 14.0498 11.45 14.0498 12C14.0498 12.55 13.854 13.0208 13.4623 13.4125C13.0706 13.8042 12.5998 14 12.0498 14ZM12.0498 8C11.4998 8 11.029 7.80417 10.6373 7.4125C10.2456 7.02083 10.0498 6.55 10.0498 6C10.0498 5.45 10.2456 4.97917 10.6373 4.5875C11.029 4.19583 11.4998 4 12.0498 4C12.5998 4 13.0706 4.19583 13.4623 4.5875C13.854 4.97917 14.0498 5.45 14.0498 6C14.0498 6.55 13.854 7.02083 13.4623 7.4125C13.0706 7.80417 12.5998 8 12.0498 8Z" fill="#5F6368"/>
</svg>
