<svg width="16" height="17" viewBox="0 0 16 17" fill="none" xmlns="http://www.w3.org/2000/svg">
<g clip-path="url(#clip0_18_253)">
<path d="M8 0.5C6.41775 0.5 4.87104 0.969192 3.55544 1.84824C2.23985 2.72729 1.21447 3.97672 0.608967 5.43853C0.00346629 6.90034 -0.15496 8.50887 0.153721 10.0607C0.462403 11.6126 1.22433 13.038 2.34315 14.1569C3.46197 15.2757 4.88743 16.0376 6.43928 16.3463C7.99113 16.655 9.59966 16.4965 11.0615 15.891C12.5233 15.2855 13.7727 14.2602 14.6518 12.9446C15.5308 11.629 16 10.0823 16 8.5C15.9977 6.37897 15.1541 4.34547 13.6543 2.84568C12.1545 1.34589 10.121 0.502294 8 0.5ZM14.6667 8.5C14.6671 9.79946 14.2855 11.0704 13.5693 12.1547C12.9945 11.5148 12.6735 10.6868 12.6667 9.82667V8.5H8.66667C8.48986 8.5 8.32029 8.42976 8.19527 8.30474C8.07024 8.17971 8 8.01015 8 7.83333V7.16667H10V4.5H11.9427L12.682 3.76067C13.3108 4.37939 13.8101 5.11709 14.1509 5.93078C14.4916 6.74447 14.667 7.61785 14.6667 8.5ZM1.366 9.142L4.05734 11.8333H6.66667C6.84348 11.8333 7.01305 11.9036 7.13807 12.0286C7.2631 12.1536 7.33334 12.3232 7.33334 12.5V15.1327C5.80013 14.9762 4.36827 14.2941 3.28062 13.2022C2.19298 12.1103 1.51652 10.6758 1.366 9.142ZM8.66667 15.1327V12.5C8.66667 11.9696 8.45596 11.4609 8.08088 11.0858C7.70581 10.7107 7.1971 10.5 6.66667 10.5H4.60934L1.442 7.33267C1.63279 6.24813 2.08983 5.22793 2.77212 4.36359C3.45441 3.49925 4.34061 2.81781 5.3512 2.38041C6.36179 1.94301 7.46516 1.76334 8.56231 1.85752C9.65946 1.9517 10.7161 2.31678 11.6373 2.92L11.3907 3.16667H8.66667V5.83333H6.66667V7.83333C6.66667 8.36377 6.87738 8.87248 7.25246 9.24755C7.62753 9.62262 8.13624 9.83333 8.66667 9.83333H11.3333C11.3318 11.0964 11.8281 12.3091 12.7147 13.2087C11.6288 14.2994 10.1981 14.9794 8.66667 15.1327Z" fill="#454545"/>
</g>
<defs>
<clipPath id="clip0_18_253">
<rect width="16" height="16" fill="white" transform="translate(0 0.5)"/>
</clipPath>
</defs>
</svg>
